<svg width="92" height="92" viewBox="0 0 92 92" fill="none" xmlns="http://www.w3.org/2000/svg">
<path fill-rule="evenodd" clip-rule="evenodd" d="M0 0V23H2V10H90V83C90 84.8565 89.2625 86.637 87.9497 87.9497C86.637 89.2625 84.8565 90 83 90H9C7.14348 90 5.36301 89.2625 4.05025 87.9497C2.7375 86.637 2 84.8565 2 83V29H0V83C0 85.3869 0.948211 87.6761 2.63604 89.364C4.32387 91.0518 6.61305 92 9 92H83C85.3869 92 87.6761 91.0518 89.364 89.364C91.0518 87.6761 92 85.3869 92 83V0H0ZM2 8V2H90V8H2ZM74 4H76V6H74V4ZM79 4H81V6H79V4ZM86 4H84V6H86V4ZM0 25H2V27H0V25ZM30.444 19.7189C35.0486 16.6422 40.4621 15 46 15C53.4261 15 60.548 17.95 65.799 23.201C71.05 28.452 74 35.5739 74 43C74 48.5379 72.3578 53.9514 69.2812 58.556C66.2045 63.1605 61.8315 66.7494 56.7151 68.8686C51.5988 70.9879 45.969 71.5424 40.5375 70.462C35.106 69.3816 30.1169 66.7149 26.201 62.799C22.2852 58.8831 19.6184 53.894 18.538 48.4625C17.4576 43.0311 18.0121 37.4012 20.1314 32.2849C22.2506 27.1685 25.8395 22.7955 30.444 19.7189ZM31 64.24C35.3838 67.3471 40.6268 69.0108 46 69C52.1031 69.0121 58.0159 66.8768 62.7031 62.968C67.3903 59.0593 70.5531 53.6263 71.6376 47.6203C72.7222 41.6143 71.6593 35.4182 68.6352 30.117C65.6111 24.8158 60.8185 20.7474 55.0967 18.6242C49.3748 16.5009 43.0884 16.4582 37.3382 18.5035C31.588 20.5488 26.7406 24.5518 23.6447 29.8114C20.5489 35.0711 19.402 41.2521 20.4048 47.2723C21.4077 53.2924 24.4964 58.768 29.13 62.74C29.6576 58.8366 31.5243 55.2375 34.4111 52.5577C37.298 49.8779 41.0258 48.2837 44.9576 48.0476C48.8895 47.8114 52.7813 48.948 55.9681 51.263C59.155 53.578 61.439 56.9278 62.43 60.74L60.49 61.24C59.5841 57.7786 57.4708 54.7551 54.5314 52.715C51.592 50.675 48.0202 49.7528 44.4607 50.1149C40.9011 50.477 37.5882 52.0996 35.1199 54.6898C32.6515 57.2799 31.1903 60.6671 31 64.24ZM46 26C44.0222 26 42.0888 26.5865 40.4443 27.6853C38.7998 28.7841 37.5181 30.3459 36.7612 32.1732C36.0043 34.0004 35.8063 36.0111 36.1922 37.9509C36.578 39.8907 37.5304 41.6725 38.9289 43.0711C40.3275 44.4696 42.1093 45.422 44.0491 45.8079C45.9889 46.1937 47.9996 45.9957 49.8268 45.2388C51.6541 44.4819 53.2159 43.2002 54.3147 41.5557C55.4135 39.9112 56 37.9778 56 36C56 33.3478 54.9464 30.8043 53.0711 28.9289C51.1957 27.0536 48.6522 26 46 26ZM46 44C44.4178 44 42.871 43.5308 41.5554 42.6518C40.2399 41.7727 39.2145 40.5233 38.609 39.0615C38.0035 37.5997 37.845 35.9911 38.1537 34.4393C38.4624 32.8874 39.2243 31.462 40.3432 30.3431C41.462 29.2243 42.8874 28.4624 44.4393 28.1537C45.9911 27.845 47.5997 28.0035 49.0615 28.609C50.5233 29.2145 51.7727 30.2398 52.6518 31.5554C53.5308 32.871 54 34.4178 54 36C54 38.1217 53.1572 40.1566 51.6569 41.6569C50.1566 43.1571 48.1217 44 46 44ZM73 77.22V75H75V77.31L76.96 76.18L77.96 77.91L76.08 79L77.96 80.09L76.96 81.82L75 80.69V83H73V80.78L71.04 81.91L70.04 80.18L72.08 79L70.04 77.82L71.04 76.09L73 77.22ZM14.96 81.82L17 80.65V83H19V80.64L20.89 81.74L21.89 80L20 78.91L21.89 77.82L20.89 76.09L19 77.18V75H17V77.18L14.96 76L13.96 77.74L16 78.91L13.96 80.09L14.96 81.82ZM33 77.22L34.96 76.09L35.96 77.82L34.08 78.91L35.96 80L34.96 81.74L33 80.6V83H31V80.69L29.04 81.82L28.04 80.09L30.08 78.91L28.04 77.74L29.04 76L31 77.14V75H33V77.22ZM48.96 76.18L47 77.31V75H45V77.22L43.04 76.09L42.04 77.82L44.08 79L42.04 80.18L43.04 81.91L45 80.78V83H47V80.69L48.96 81.82L49.96 80.09L48.08 79L49.96 77.91L48.96 76.18ZM61 77.31L62.96 76.18L63.96 77.91L62.08 79L63.96 80.09L62.96 81.82L61 80.69V83H59V80.78L57.04 81.91L56.04 80.18L58.08 79L56.04 77.82L57.04 76.09L59 77.22V75H61V77.31Z" fill="white"/>
</svg>
